<?xml version="1.0" encoding="UTF-8"?>
<svg version="1.1" xmlns="http://www.w3.org/2000/svg" width="273" height="273">
<path d="M0 0 C0.66547852 0.18191895 1.33095703 0.36383789 2.01660156 0.55126953 C12.29991337 3.41799248 21.65434861 7.94016915 31 13 C31.91523438 13.49371094 32.83046875 13.98742187 33.7734375 14.49609375 C52.10336242 24.96609941 67.72080938 40.22472754 79 58 C79.69480469 59.08410156 80.38960937 60.16820313 81.10546875 61.28515625 C99.01894407 90.90995586 105.57263459 128.58443317 97.76586914 162.49975586 C97.21521326 164.67921111 96.61988245 166.83932511 96 169 C95.81808105 169.66547852 95.63616211 170.33095703 95.44873047 171.01660156 C92.58200752 181.29991337 88.05983085 190.65434861 83 200 C82.50628906 200.91523438 82.01257813 201.83046875 81.50390625 202.7734375 C71.03390059 221.10336242 55.77527246 236.72080938 38 248 C36.91589844 248.69480469 35.83179688 249.38960937 34.71484375 250.10546875 C5.09004414 268.01894407 -32.58443317 274.57263459 -66.49975586 266.76586914 C-68.67921111 266.21521326 -70.83932511 265.61988245 -73 265 C-73.66547852 264.81808105 -74.33095703 264.63616211 -75.01660156 264.44873047 C-85.29991337 261.58200752 -94.65434861 257.05983085 -104 252 C-104.91523437 251.50628906 -105.83046875 251.01257813 -106.7734375 250.50390625 C-125.04174755 240.06909485 -140.843775 224.79717786 -152 207 C-152.38881348 206.38044434 -152.77762695 205.76088867 -153.17822266 205.12255859 C-171.70136345 175.05966137 -178.7437656 137.15901989 -170.76586914 102.50024414 C-170.21521326 100.32078889 -169.61988245 98.16067489 -169 96 C-168.72712158 95.00178223 -168.72712158 95.00178223 -168.44873047 93.98339844 C-165.58200752 83.70008663 -161.05983085 74.34565139 -156 65 C-155.50628906 64.08476563 -155.01257813 63.16953125 -154.50390625 62.2265625 C-144.06909485 43.95825245 -128.79717786 28.156225 -111 17 C-110.38044434 16.61118652 -109.76088867 16.22237305 -109.12255859 15.82177734 C-77.11650799 -3.89863007 -36.37462079 -10.43562317 0 0 Z " fill="#FEFEFE" transform="translate(173,4)"/>
<path d="M0 0 C5.94 0 11.88 0 18 0 C18 0.66 18 1.32 18 2 C16.96101563 2.07734375 15.92203125 2.1546875 14.8515625 2.234375 C11.95868913 3.07006162 11.12441261 3.80650461 9.47167969 6.37695312 C7.97659019 9.62843036 6.65211828 12.90684657 5.375 16.25 C4.8991748 17.43408447 4.42334961 18.61816895 3.93310547 19.83813477 C1.13551029 26.85717868 -1.5078928 33.92598837 -3.9453125 41.078125 C-5.39510718 45.09459322 -7.15715097 48.93613828 -8.984375 52.79296875 C-10.09227952 55.0946463 -10.09227952 55.0946463 -11 58 C-11.99 58 -12.98 58 -14 58 C-16.31692436 53.13449694 -18.61312829 48.25994615 -20.89086914 43.37597656 C-21.66815629 41.71677058 -22.45098806 40.06015013 -23.23950195 38.40625 C-24.37366822 36.02485861 -25.4873989 33.63480157 -26.59765625 31.2421875 C-26.952798 30.50757294 -27.30793976 29.77295837 -27.67384338 29.01608276 C-29.69370535 24.60153319 -30.39406679 21.86084679 -29 17 C-28.01 17 -27.02 17 -26 17 C-24.00140851 21.37609528 -22.00770928 25.75437271 -20.01855469 30.13476562 C-19.34086709 31.62528849 -18.66183545 33.11520102 -17.98144531 34.60449219 C-17.0049389 36.74255726 -16.03325234 38.88275492 -15.0625 41.0234375 C-14.60315063 42.02508438 -14.60315063 42.02508438 -14.13452148 43.04696655 C-12 47.77225659 -12 47.77225659 -12 50 C-11.34 50 -10.68 50 -10 50 C-9.88374268 49.30414795 -9.76748535 48.6082959 -9.64770508 47.89135742 C-8.92790974 44.67818885 -7.85203405 41.79876341 -6.63671875 38.73828125 C-6.16169922 37.53623047 -5.68667969 36.33417969 -5.19726562 35.09570312 C-4.69409764 33.83460061 -4.19084195 32.57353309 -3.6875 31.3125 C-3.19558149 30.07111487 -2.70404177 28.82957956 -2.21289062 27.58789062 C1.67136059 17.78577619 1.67136059 17.78577619 3.24755859 14.01708984 C3.61316895 13.13875488 3.9787793 12.26041992 4.35546875 11.35546875 C4.67539795 10.60289795 4.99532715 9.85032715 5.32495117 9.07495117 C6.20624796 6.72970552 6.20624796 6.72970552 6 3 C4.02 2.67 2.04 2.34 0 2 C0 1.34 0 0.68 0 0 Z " fill="#4B4948" transform="translate(164,130)"/>
<path d="M0 0 C5.94 0 11.88 0 18 0 C18 0.33 18 0.66 18 1 C16.35 1.33 14.7 1.66 13 2 C13.57537616 6.65165114 14.86534011 10.30856049 16.87109375 14.53515625 C17.29467918 15.43686806 17.29467918 15.43686806 17.7268219 16.35679626 C18.62344131 18.26206804 19.53004345 20.16236951 20.4375 22.0625 C21.33926556 23.9671389 22.23892528 25.87275339 23.13746643 27.77891541 C23.95317662 29.50674936 24.77417257 31.23208499 25.59545898 32.95727539 C29.07279933 40.49040467 29.07279933 40.49040467 28.6875 43.1875 C28 45 28 45 27 47 C26.34 47 25.68 47 25 47 C24.46632813 45.81148437 23.93265625 44.62296875 23.3828125 43.3984375 C21.8105971 39.89824212 20.2341991 36.39995756 18.65625 32.90234375 C16.85156631 28.90021598 15.06214296 24.89167261 13.28125 20.87890625 C12.39597553 18.89837393 11.5105624 16.91790359 10.625 14.9375 C10.20879395 13.99245605 9.79258789 13.04741211 9.36376953 12.07373047 C8.96786621 11.19217285 8.57196289 10.31061523 8.1640625 9.40234375 C7.81811035 8.62366943 7.4721582 7.84499512 7.11572266 7.04272461 C5.29394165 3.70731068 3.15522997 2.10348664 0 0 Z " fill="#494746" transform="translate(86,86)"/>
<path d="M0 0 C0.66 0 1.32 0 2 0 C0.49996727 4.47495797 -1.98258708 7.91403886 -4.8125 11.625 C-9.15244054 17.42339773 -13.31422006 23.31550289 -17.375 29.3125 C-22.21158606 36.44256165 -27.18247857 43.45713254 -32.25195312 50.4230957 C-35.86608394 55.40021054 -39.40041393 60.4245386 -42.875 65.5 C-43.54994507 66.48456177 -43.54994507 66.48456177 -44.23852539 67.48901367 C-46.22551069 70.3920454 -48.20269559 73.30093904 -50.16796875 76.21875 C-51.10576172 77.59546875 -51.10576172 77.59546875 -52.0625 79 C-52.85333984 80.175625 -52.85333984 80.175625 -53.66015625 81.375 C-54.10230469 81.91125 -54.54445313 82.4475 -55 83 C-55.66 83 -56.32 83 -57 83 C-55.38096893 77.95533613 -52.36962467 74.1374349 -49.25 69.9375 C-48.06769557 68.32387924 -46.88675395 66.70925923 -45.70703125 65.09375 C-45.09553223 64.25714844 -44.4840332 63.42054688 -43.85400391 62.55859375 C-40.831155 58.3869508 -37.88315 54.16384956 -34.9375 49.9375 C-33.76570367 48.25775762 -32.59382918 46.57806976 -31.421875 44.8984375 C-30.85146484 44.08084961 -30.28105469 43.26326172 -29.69335938 42.42089844 C-27.03832692 38.62515134 -24.36303011 34.84381278 -21.6875 31.0625 C-18.1633285 26.07897485 -14.65791365 21.08361937 -11.1875 16.0625 C-10.47851562 15.03898437 -9.76953125 14.01546875 -9.0390625 12.9609375 C-7.66993936 10.97282382 -6.31067053 8.97789079 -4.9609375 6.9765625 C-4.33445313 6.05617188 -3.70796875 5.13578125 -3.0625 4.1875 C-2.24458984 2.97126953 -2.24458984 2.97126953 -1.41015625 1.73046875 C-0.94480469 1.15941406 -0.47945312 0.58835937 0 0 Z " fill="#615F5E" transform="translate(157,99)"/>
<path d="M0 0 C5.94 0 11.88 0 18 0 C18 0.66 18 1.32 18 2 C16.96101563 2.07734375 15.92203125 2.1546875 14.8515625 2.234375 C11.95868913 3.07006162 11.12441261 3.80650461 9.47167969 6.37695312 C7.97659481 9.62842032 6.65209544 12.90685204 5.375 16.25 C4.900625 17.43045898 4.42625 18.61091797 3.9375 19.82714844 C1.11587744 26.9065371 -1.60093999 34.03095964 -4 41.265625 C-5.11318141 44.30948043 -6.50420721 47.12739794 -8 50 C-8.66 49.67 -9.32 49.34 -10 49 C-7.56381187 39.76649627 -3.80600797 31.11534387 -0.03759766 22.36889648 C0.77638063 20.47415984 1.58004977 18.57529139 2.3828125 16.67578125 C2.86121582 15.56114502 3.33961914 14.44650879 3.83251953 13.2980957 C5.05345799 9.84898284 5.60391507 6.62943719 6 3 C3.03 2.505 3.03 2.505 0 2 C0 1.34 0 0.68 0 0 Z " fill="#5D5C5B" transform="translate(164,130)"/>
<path d="M0 0 C5.61 0 11.22 0 17 0 C15.02 0.99 15.02 0.99 13 2 C9.48299716 5.70025852 7.64064623 9.74914884 5.8359375 14.453125 C5.55779205 15.15395203 5.27964661 15.85477905 4.99307251 16.57684326 C4.11212855 18.79807942 3.24247783 21.02347357 2.375 23.25 C1.49973494 25.49052484 0.62193036 27.72986923 -0.26449585 29.96600342 C-0.814337 31.35338562 -1.3577045 32.74335432 -1.89395142 34.13604736 C-3.77495193 38.88747597 -3.77495193 38.88747597 -6 40 C-5.398373 35.49374578 -4.22683762 31.64250509 -2.53125 27.4296875 C-2.04269531 26.20378906 -1.55414063 24.97789063 -1.05078125 23.71484375 C-0.5342273 22.4347452 -0.0172965 21.15479866 0.5 19.875 C1.51379535 17.35289047 2.5230948 14.82906555 3.53125 12.3046875 C4.20510742 10.6338208 4.20510742 10.6338208 4.89257812 8.92919922 C5.76858436 6.61210866 6.48005506 4.41539396 7 2 C4.69 1.67 2.38 1.34 0 1 C0 0.67 0 0.34 0 0 Z " fill="#5D5B5A" transform="translate(130,86)"/>
<path d="M0 0 C5.94 0 11.88 0 18 0 C18 0.66 18 1.32 18 2 C16.906875 2.226875 15.81375 2.45375 14.6875 2.6875 C10.87265531 3.64944439 10.87265531 3.64944439 9.125 6.625 C8.75375 7.40875 8.3825 8.1925 8 9 C7.67 9 7.34 9 7 9 C6.67 7.02 6.34 5.04 6 3 C3.03 2.505 3.03 2.505 0 2 C0 1.34 0 0.68 0 0 Z " fill="#6F6D6D" transform="translate(164,130)"/>
<path d="M0 0 C5.61 0 11.22 0 17 0 C15.02 0.99 15.02 0.99 13 2 C11.61767557 3.62626404 10.28062485 5.2925002 9 7 C8.34 7.66 7.68 8.32 7 9 C7 6.69 7 4.38 7 2 C4.69 1.67 2.38 1.34 0 1 C0 0.67 0 0.34 0 0 Z " fill="#504F4E" transform="translate(130,86)"/>
<path d="M0 0 C0.66 0.33 1.32 0.66 2 1 C0.45730076 5.72065967 -1.07794619 10.41664092 -3 15 C-3.66 14.67 -4.32 14.34 -5 14 C-4.54636829 12.41531323 -4.08688548 10.83230076 -3.625 9.25 C-3.36976563 8.36828125 -3.11453125 7.4865625 -2.8515625 6.578125 C-2.0790066 4.23919428 -1.16374324 2.16557438 0 0 Z " fill="#676564" transform="translate(159,165)"/>
<path d="M0 0 C0.66 0 1.32 0 2 0 C0.7508258 3.45925163 -0.67527795 6.14693203 -3 9 C-3.99 8.67 -4.98 8.34 -6 8 C-5.04956626 6.66102417 -4.08940853 5.32894573 -3.125 4 C-2.59132812 3.2575 -2.05765625 2.515 -1.5078125 1.75 C-1.01023438 1.1725 -0.51265625 0.595 0 0 Z " fill="#6C6B6A" transform="translate(157,99)"/>
<path d="M0 0 C0.66 0.66 1.32 1.32 2 2 C1.21654285 3.17219543 0.42297164 4.33763668 -0.375 5.5 C-0.81585938 6.1496875 -1.25671875 6.799375 -1.7109375 7.46875 C-2.13632813 7.9740625 -2.56171875 8.479375 -3 9 C-3.66 9 -4.32 9 -5 9 C-3.7508258 5.54074837 -2.32472205 2.85306797 0 0 Z " fill="#716F6E" transform="translate(105,173)"/>
<path d="M0 0 C0.66 0 1.32 0 2 0 C0.73058503 3.91402949 -0.51167694 5.79072873 -4 8 C-2.87548273 5.0280615 -1.77706209 2.66559313 0 0 Z " fill="#656463" transform="translate(110,166)"/>
</svg>
